<svg width="344" height="114" viewBox="0 0 344 114" fill="none" xmlns="http://www.w3.org/2000/svg">
<path d="M344.001 51.0845C344.001 53.5299 343.6 55.9423 342.823 58.2615C339.17 74.79 307.582 94.7848 306.238 95.6356C305.818 95.8964 305.347 96.0327 304.867 96.0327C304.387 96.0327 303.91 95.9119 303.49 95.6356C303.128 95.4005 294.229 89.7843 285.206 82.0648C284.125 81.1335 284.012 79.527 284.918 78.4512C285.847 77.3845 287.452 77.2546 288.534 78.1612C295.26 83.9073 302.057 88.5529 304.879 90.4247C314.366 84.2394 335.31 68.5032 337.877 56.8974C338.548 54.8473 338.85 52.9828 338.85 51.09C338.85 44.5013 335.263 38.4276 329.487 35.2458C322.111 31.1528 312.237 33.0401 306.84 39.5456C305.87 40.7202 303.876 40.7202 302.888 39.5456C297.475 33.0355 287.608 31.1628 280.242 35.2385C274.447 38.4276 270.86 44.4976 270.86 51.0799C270.86 52.9599 271.178 54.8326 271.771 56.6413C272.152 58.3337 272.88 59.9887 273.807 61.7059H288.77L293.909 49.8961C294.349 48.8852 295.4 48.2494 296.481 48.3628C297.583 48.4589 298.501 49.2512 298.746 50.327L302.529 66.3203L307.423 58.2962C307.884 57.5342 308.714 57.0685 309.61 57.0685H318.897C320.31 57.0685 321.459 58.213 321.459 59.6328C321.459 61.0453 320.31 62.1962 318.897 62.1962H311.049L303.677 74.3051C303.207 75.0772 302.378 75.5383 301.497 75.5383C301.357 75.5383 301.222 75.5273 301.097 75.5081C300.064 75.3425 299.25 74.5814 299.002 73.5705L295.545 59.0025L292.814 65.2902C292.405 66.2353 291.481 66.8317 290.461 66.8317H260.563C259.16 66.8308 258 65.6836 258 64.2683C258 62.8558 259.16 61.705 260.563 61.705H268.081C267.547 60.4324 267.116 59.1974 266.849 58.0026C266.134 55.9277 265.747 53.5116 265.747 51.079C265.747 42.624 270.345 34.8396 277.774 30.7466C286.379 25.9867 297.766 27.4833 304.878 34.1654C311.969 27.4824 323.348 25.9867 331.968 30.7466C339.388 34.8341 344.001 42.624 344.001 51.0845Z" fill="black"/>
<path d="M34.7812 90L14.4375 36.8438H14.1094C14.4922 41.0547 14.6836 46.0586 14.6836 51.8555V90H8.24414V30.0352H18.7441L37.7344 79.5H38.0625L57.2168 30.0352H67.6348V90H60.6621V51.3633C60.6621 46.9336 60.8535 42.1211 61.2363 36.9258H60.9082L40.4004 90H34.7812ZM117.551 90H84.123V30.0352H117.551V36.2285H91.0957V55.5469H115.951V61.6992H91.0957V83.7656H117.551V90ZM178.746 59.4434C178.746 69.3418 176.053 76.916 170.666 82.166C165.307 87.3887 157.582 90 147.492 90H130.881V30.0352H149.256C158.58 30.0352 165.826 32.6191 170.994 37.7871C176.162 42.9551 178.746 50.1738 178.746 59.4434ZM171.363 59.6895C171.363 51.8691 169.395 45.9766 165.457 42.0117C161.547 38.0469 155.723 36.0645 147.984 36.0645H137.854V83.9707H146.344C154.656 83.9707 160.904 81.9336 165.088 77.8594C169.271 73.7578 171.363 67.7012 171.363 59.6895ZM192.158 90V30.0352H199.131V90H192.158ZM241.295 35.4082C234.705 35.4082 229.496 37.6094 225.668 42.0117C221.867 46.3867 219.967 52.3887 219.967 60.0176C219.967 67.8652 221.799 73.9355 225.463 78.2285C229.154 82.4941 234.404 84.627 241.213 84.627C245.396 84.627 250.168 83.875 255.527 82.3711V88.4824C251.371 90.041 246.244 90.8203 240.146 90.8203C231.314 90.8203 224.492 88.1406 219.68 82.7812C214.895 77.4219 212.502 69.8066 212.502 59.9355C212.502 53.7559 213.65 48.3418 215.947 43.6934C218.271 39.0449 221.607 35.4629 225.955 32.9473C230.33 30.4316 235.471 29.1738 241.377 29.1738C247.666 29.1738 253.162 30.3223 257.865 32.6191L254.912 38.6074C250.373 36.4746 245.834 35.4082 241.295 35.4082Z" fill="black"/>
</svg>
